PathFileType	4	(X/Y/Z)	Walk3.trc
DataRate	CameraRate	NumFrames	NumMarkers	Units	OrigDataRate	OrigDataStartFrame	OrigNumFrames
200.000000	200.000000	5	68	mm	200.000000	940	1063
Frame#	Times		LFHD		LowerBodyModelVer		RFHD		RACR1		RCAR		LElbow		RWRU		RUA1		LACR1		LLFC		RASI		RFA1		LUA1		LTH3		LTB1		RTH2		LMT1		LMT5		RTH4		LTB4		LTH4		LTB3		LToe		RLFC		CLAV		STRN		LTH2		LLMAL		LASI		LTH1		PELOrigin		RTH3		LWRU		RElbow		RBack		LFA1		LPSI		RMT1		RMT5		LBHD		RPSI		LHJC		MidPelvis		OPelvis		RHJC		SACR		XPelvis		YPelvis		ZPelvis		RCAL		LCAR		C7		RToe		RLMAL		RBHD		RTB2		RTB3		RTH1		LWRR		RTB1		RTB4		RMMAL		LTB2		RElbowM		T10		RWRR		LMMAL		LCAL
			X1	Y1	Z1	X2	Y2	Z2	X3	Y3	Z3	X4	Y4	Z4	X5	Y5	Z5	X6	Y6	Z6	X7	Y7	Z7	X8	Y8	Z8	X9	Y9	Z9	X10	Y10	Z10	X11	Y11	Z11	X12	Y12	Z12	X13	Y13	Z13	X14	Y14	Z14	X15	Y15	Z15	X16	Y16	Z16	X17	Y17	Z17	X18	Y18	Z18	X19	Y19	Z19	X20	Y20	Z20	X21	Y21	Z21	X22	Y22	Z22	X23	Y23	Z23	X24	Y24	Z24	X25	Y25	Z25	X26	Y26	Z26	X27	Y27	Z27	X28	Y28	Z28	X29	Y29	Z29	X30	Y30	Z30	X31	Y31	Z31	X32	Y32	Z32	X33	Y33	Z33	X34	Y34	Z34	X35	Y35	Z35	X36	Y36	Z36	X37	Y37	Z37	X38	Y38	Z38	X39	Y39	Z39	X40	Y40	Z40	X41	Y41	Z41	X42	Y42	Z42	X43	Y43	Z43	X44	Y44	Z44	X45	Y45	Z45	X46	Y46	Z46	X47	Y47	Z47	X48	Y48	Z48	X49	Y49	Z49	X50	Y50	Z50	X51	Y51	Z51	X52	Y52	Z52	X53	Y53	Z53	X54	Y54	Z54	X55	Y55	Z55	X56	Y56	Z56	X57	Y57	Z57	X58	Y58	Z58	X59	Y59	Z59	X60	Y60	Z60	X61	Y61	Z61	X62	Y62	Z62	X63	Y63	Z63	X64	Y64	Z64	X65	Y65	Z65	X66	Y66	Z66	X67	Y67	Z67	X68	Y68	Z68

940	4.7	517.84	1582.7	-1.7152	9	2014	4	525.07	1581	95.793	416.63	1367	218.86	529.75	808.92	385.2	299.42	1090.2	-257.59	475.11	848.06	398.34	398.92	1223	309.73	403.05	1365.7	-139.05	480.66	495.23	-157.55	472.25	945.83	206.12	462.79	954.75	369.47	369.83	1225.1	-220.94	477.78	563.04	-173.15	566.35	358.85	-66.749	405.95	619.04	197.02	718.5	93.603	-87.235	694.03	71.943	-167.95	349.53	629.25	212.88	577.86	274.62	-78.854	453.74	644.2	-199.42	596.18	191.06	-88.673	749.98	112.24	-96.009	315.29	453.55	179.64	479.93	1336.3	40.25	542.62	1216.1	42.563	508.75	663.65	-183.54	573.19	85.444	-150.01	468.61	965.57	-151.82	433.22	724.23	-222.53	470.43	955.7	27.148	330.94	545.94	194.9	284.87	854.18	-334.83	368.48	1060.7	355.7	272.27	1307.5	155.27	331.63	963.51	-300.66	236.58	987.88	-72.874	332.16	33.951	68.63	322.84	27.445	161.34	366.66	1554	-19.383	223.96	985.59	60.367	373.17	858.62	-99.3	350.35	971.22	10.447	470.43	955.7	27.148	375.65	845.2	144.1	230.27	986.73	-6.2534	549.84	946.1	25.811	480.08	1035	31.424	471.24	951.29	107.02	145.31	35.82	114.56	313.13	800.71	-340.4	322.22	1412.6	59.122	380.31	30.277	76.939	205.21	71.006	155.52	356.67	1561	116.21	297.7	264.01	158.83	277.47	176.13	99.78	380.1	705.24	232.09	342.12	841.37	-287.63	341.99	335.47	92.942	309.73	255.8	96.361	219.67	76.001	68.278	567.61	280.8	-139.21	331.84	1036.7	274.29	259.21	1087	23.514	513.94	861.59	336.61	591.42	94.343	-67.591	540.06	27.187	-101.76
941	4.705	522.56	1582	-2.5285	9	2014	4	529.8	1580.3	94.982	421.09	1366.6	218.1	535	808.98	385.1	302.68	1089.9	-257.87	480.32	848.08	398.24	403.94	1222.6	308.84	407.42	1365.1	-139.81	486.03	494.35	-157.18	476.59	945.35	205.78	467.86	954.69	369.14	373.46	1224.6	-221.63	481.38	561.41	-173.65	572.96	359.34	-65.353	409.78	618.46	196.68	729.22	95.768	-85.679	705.33	73.588	-166.52	353.34	628.85	212.51	585.88	275.22	-77.62	457.53	642.69	-199.87	605.41	191.9	-87.543	760.53	114.74	-94.239	318.48	453.22	179.4	484.55	1335.9	39.64	547.44	1215.7	42.564	512.51	662.04	-183.56	584.18	85.968	-149.17	474.05	964.78	-151.91	437.16	722.78	-222.72	475.32	955.07	26.936	334.51	545.6	194.61	286.22	853.98	-335.12	373.51	1060.5	355.24	276.86	1306.8	154.45	333.92	963.04	-301.21	241.79	987.18	-74.106	332.18	33.96	68.66	322.83	27.439	161.36	371.34	1553.4	-20.173	228.63	985.05	59.061	378.51	857.97	-99.629	355.26	970.59	9.7067	475.32	955.07	26.936	380.24	844.76	143.6	235.21	986.11	-7.5228	554.73	945.46	25.851	484.96	1034.4	31.175	475.88	950.73	106.82	145.39	36.538	114.63	314.07	800.31	-340.88	326.72	1411.9	58.363	380.32	30.257	76.982	205.44	71.456	155.57	361.38	1560.5	115.42	299.37	263.82	158.79	278.54	175.98	99.875	384.11	704.78	231.73	343.7	840.81	-288.31	344.37	334.86	92.892	311.46	255.42	96.383	219.95	76.362	68.292	576.18	281.4	-138.06	336.64	1036.4	273.96	264.01	1086.3	22.55	519.11	861.56	336.43	601.86	95.162	-66.638	551.52	27.201	-101.02
942	4.71	527.27	1581.3	-3.3713	9	2014	4	534.5	1579.6	94.143	425.53	1366.2	217.29	540.17	809.03	384.97	305.98	1089.5	-258.17	485.45	848.09	398.09	408.88	1222.2	307.92	411.79	1364.5	-140.62	491.7	493.55	-156.83	480.97	944.88	205.38	472.87	954.62	368.77	377.1	1224.2	-222.34	485.23	559.87	-174.19	579.52	359.72	-64.064	413.69	617.87	196.33	739.17	97.565	-84.084	715.8	74.919	-165.02	357.24	628.44	212.14	593.61	275.7	-76.405	461.49	641.25	-200.38	614.14	192.59	-86.362	770.34	116.8	-92.444	321.74	452.87	179.17	489.18	1335.4	38.981	552.26	1215.3	42.516	516.4	660.56	-183.57	594.38	86.389	-148.2	479.54	963.97	-152.01	441.2	721.37	-222.98	480.25	954.42	26.682	338.16	545.25	194.32	287.66	853.74	-335.41	378.5	1060.4	354.73	281.43	1306.1	153.56	336.28	962.52	-301.76	247.03	986.45	-75.348	332.19	33.963	68.696	322.83	27.433	161.37	376.01	1552.9	-21.008	233.33	984.51	57.745	383.91	857.31	-99.982	360.22	969.95	8.9404	480.25	954.42	26.682	384.88	844.32	143.04	240.18	985.48	-8.8011	559.67	944.82	25.851	489.89	1033.7	30.879	480.57	950.16	106.57	145.47	37.305	114.71	315.1	799.87	-341.35	331.21	1411.2	57.55	380.32	30.233	77.022	205.68	71.935	155.62	366.07	1559.9	114.59	301.09	263.64	158.75	279.63	175.84	99.971	388.19	704.33	231.37	345.37	840.21	-288.98	346.77	334.24	92.846	313.2	255.04	96.409	220.25	76.753	68.324	584.39	281.86	-136.91	341.4	1036.1	273.58	268.83	1085.5	21.56	524.21	861.5	336.2	611.58	95.852	-65.562	562.13	27.213	-100.12
943	4.715	531.96	1580.6	-4.2439	9	2014	4	539.18	1578.8	93.275	429.93	1365.8	216.44	545.25	809.05	384.79	309.32	1089.1	-258.5	490.5	848.09	397.9	413.76	1221.8	306.98	416.18	1363.9	-141.46	497.68	492.81	-156.49	485.4	944.41	204.91	477.82	954.53	368.34	380.76	1223.7	-223.07	489.39	558.47	-174.73	586.02	359.96	-62.889	417.68	617.28	195.95	748.34	98.96	-82.445	725.45	75.904	-163.43	361.22	628.01	211.77	601.04	276.03	-75.216	465.65	639.91	-200.93	622.36	193.09	-85.138	779.43	118.39	-90.616	325.06	452.52	178.94	493.8	1334.9	38.269	557.07	1214.9	42.408	520.45	659.26	-183.57	603.81	86.671	-147.1	485.09	963.14	-152.14	445.36	720.03	-223.31	485.24	953.77	26.384	341.88	544.9	194.03	289.18	853.45	-335.7	383.44	1060.2	354.17	285.98	1305.4	152.61	338.7	961.96	-302.32	252.29	985.71	-76.595	332.21	33.961	68.738	322.82	27.427	161.38	380.66	1552.4	-21.888	238.06	983.95	56.424	389.38	856.64	-100.36	365.21	969.3	8.1494	485.24	953.77	26.384	389.59	843.9	142.44	245.17	984.83	-10.085	564.66	944.16	25.811	494.87	1033.1	30.536	485.31	949.58	106.27	145.56	38.123	114.8	316.23	799.4	-341.82	335.68	1410.5	56.681	380.32	30.204	77.059	205.94	72.441	155.69	370.73	1559.4	113.71	302.85	263.47	158.71	280.74	175.72	100.07	392.35	703.86	231.01	347.11	839.57	-289.63	349.22	333.61	92.809	314.98	254.67	96.438	220.57	77.176	68.375	592.24	282.14	-135.78	346.1	1035.7	273.16	273.68	1084.7	20.544	529.23	861.42	335.92	620.58	96.381	-64.369	571.86	27.191	-99.06
944	4.72	536.64	1579.9	-5.1463	9	2014	4	543.84	1578.1	92.377	434.31	1365.4	215.55	550.25	809.05	384.58	312.7	1088.6	-258.85	495.47	848.07	397.67	418.57	1221.5	306.03	420.57	1363.3	-142.35	503.95	492.15	-156.14	489.87	943.94	204.38	482.7	954.42	367.85	384.44	1223.1	-223.84	493.9	557.23	-175.23	592.48	360.06	-61.836	421.75	616.69	195.56	756.75	99.93	-80.76	734.28	76.519	-161.77	365.28	627.58	211.4	608.18	276.19	-74.062	470.07	638.68	-201.49	630.08	193.39	-83.88	787.8	119.47	-88.746	328.46	452.16	178.72	498.41	1334.4	37.502	561.87	1214.5	42.232	524.69	658.16	-183.53	612.45	86.789	-145.87	490.69	962.29	-152.3	449.66	718.74	-223.7	490.28	953.11	26.042	345.69	544.53	193.74	290.8	853.13	-335.99	388.33	1060	353.56	290.52	1304.6	151.59	341.18	961.36	-302.89	257.56	984.95	-77.846	332.24	33.956	68.786	322.82	27.419	161.39	385.3	1551.8	-22.813	242.82	983.38	55.102	394.91	855.96	-100.77	370.23	968.64	7.3351	490.28	953.11	26.042	394.35	843.48	141.77	250.19	984.17	-11.372	569.7	943.5	25.73	499.9	1032.4	30.145	490.09	949	105.94	145.66	38.995	114.9	317.46	798.9	-342.27	340.16	1409.8	55.754	380.32	30.168	77.095	206.21	72.976	155.76	375.37	1558.8	112.79	304.65	263.3	158.69	281.86	175.62	100.17	396.6	703.4	230.64	348.93	838.9	-290.27	351.7	332.98	92.784	316.78	254.3	96.475	220.9	77.636	68.449	599.72	282.23	-134.67	350.75	1035.4	272.68	278.54	1083.9	19.504	534.18	861.32	335.6	628.86	96.719	-63.071	580.72	27.113	-97.864
